<svg width="60" height="60" viewBox="0 0 60 60" fill="none" xmlns="http://www.w3.org/2000/svg">
<rect width="60" height="60" rx="30" fill="url(#paint0_linear_822_1665)"/>
<rect x="1.5" y="1.5" width="57" height="57" rx="28.5" stroke="url(#paint1_linear_822_1665)" stroke-opacity="0.28" stroke-width="3"/>
<path fill-rule="evenodd" clip-rule="evenodd" d="M21 34.87V27.257H39V34.931C39 38.07 37.0241 40 33.8628 40H26.1273C22.9956 40 21 38.03 21 34.87ZM25.9594 32.41C25.5049 32.431 25.1295 32.07 25.1098 31.611C25.1098 31.151 25.4654 30.771 25.9199 30.75C26.3644 30.75 26.73 31.101 26.7398 31.55C26.7596 32.011 26.404 32.391 25.9594 32.41ZM30.0198 32.41C29.5653 32.431 29.1899 32.07 29.1701 31.611C29.1701 31.151 29.5258 30.771 29.9802 30.75C30.4248 30.75 30.7903 31.101 30.8002 31.55C30.82 32.011 30.4643 32.391 30.0198 32.41ZM34.0505 36.09C33.596 36.08 33.2305 35.7 33.2305 35.24C33.2206 34.78 33.5862 34.401 34.0406 34.391H34.0505C34.5148 34.391 34.8902 34.771 34.8902 35.24C34.8902 35.71 34.5148 36.09 34.0505 36.09ZM29.1701 35.24C29.1899 35.7 29.5653 36.061 30.0198 36.04C30.4643 36.021 30.82 35.641 30.8002 35.181C30.7903 34.731 30.4248 34.38 29.9802 34.38C29.5258 34.401 29.1701 34.78 29.1701 35.24ZM25.0999 35.24C25.1196 35.7 25.4951 36.061 25.9495 36.04C26.3941 36.021 26.7497 35.641 26.73 35.181C26.7201 34.731 26.3546 34.38 25.91 34.38C25.4555 34.401 25.0999 34.78 25.0999 35.24ZM33.2404 31.601C33.2404 31.141 33.596 30.771 34.0505 30.761C34.4951 30.761 34.8507 31.12 34.8705 31.561C34.8804 32.021 34.5247 32.401 34.0801 32.41C33.6257 32.42 33.2503 32.07 33.2404 31.611V31.601Z" fill="white"/>
<path opacity="0.4" d="M21.0034 27.2569C21.0163 26.6699 21.0657 25.5049 21.1585 25.1299C21.6327 23.0209 23.243 21.6809 25.5449 21.4899H34.456C36.7381 21.6909 38.3682 23.0399 38.8424 25.1299C38.9343 25.4949 38.9837 26.6689 38.9965 27.2569H21.0034Z" fill="white"/>
<path d="M26.3049 24.59C26.7396 24.59 27.0656 24.261 27.0656 23.82V20.771C27.0656 20.33 26.7396 20 26.3049 20C25.8702 20 25.5442 20.33 25.5442 20.771V23.82C25.5442 24.261 25.8702 24.59 26.3049 24.59" fill="white"/>
<path d="M33.695 24.59C34.1198 24.59 34.4557 24.261 34.4557 23.82V20.771C34.4557 20.33 34.1198 20 33.695 20C33.2603 20 32.9343 20.33 32.9343 20.771V23.82C32.9343 24.261 33.2603 24.59 33.695 24.59" fill="white"/>
<defs>
<linearGradient id="paint0_linear_822_1665" x1="4.46115" y1="4.58333" x2="59.5564" y2="53.0748" gradientUnits="userSpaceOnUse">
<stop stop-color="#CB97FF"/>
<stop offset="1" stop-color="#583DFF"/>
</linearGradient>
<linearGradient id="paint1_linear_822_1665" x1="56.2969" y1="2.58408e-06" x2="-12.5112" y2="36.2553" gradientUnits="userSpaceOnUse">
<stop stop-color="white"/>
<stop offset="1" stop-color="#5C29FF" stop-opacity="0.6"/>
</linearGradient>
</defs>
</svg>
