<svg width="41" height="41" viewBox="0 0 41 41" fill="none" xmlns="http://www.w3.org/2000/svg">
<circle cx="20.0674" cy="20.5264" r="20" fill="#4E6297"/>
<path d="M29.0674 14.345C29.0674 12.8476 27.7461 11.5264 26.2487 11.5264H14.886C13.3886 11.5264 12.0674 12.8476 12.0674 14.345V25.7077C12.0674 27.2051 13.3886 28.5264 14.886 28.5264H20.6114V22.0963H18.4974V19.2777H20.6114V18.1326C20.6114 16.1948 22.0208 14.5212 23.7824 14.5212H26.0726V17.3398H23.7824C23.5182 17.3398 23.2539 17.6041 23.2539 18.1326V19.2777H26.0726V22.0963H23.2539V28.5264H26.2487C27.7461 28.5264 29.0674 27.2051 29.0674 25.7077V14.345Z" fill="white"/>
</svg>
