<svg width="31" height="32" viewBox="0 0 31 32" fill="none" xmlns="http://www.w3.org/2000/svg">
<path d="M0.0673828 15.9002C0.0673828 7.40883 6.78311 0.525208 15.0674 0.525208C23.3517 0.525208 30.0674 7.40883 30.0674 15.9002C30.0674 24.3916 23.3517 31.2752 15.0674 31.2752C6.78311 31.2752 0.0673828 24.3916 0.0673828 15.9002Z" fill="white"/>
<path d="M15.0675 0.525208C6.78425 0.525208 0.0673828 7.4108 0.0673828 15.905C0.0673828 22.7001 4.36537 28.4651 10.3254 30.4988C11.075 30.6411 11.3503 30.1651 11.3503 29.7589C11.3503 29.3922 11.3364 28.1807 11.3299 26.8955C7.15685 27.8259 6.27628 25.0809 6.27628 25.0809C5.59394 23.3032 4.61079 22.8305 4.61079 22.8305C3.24983 21.876 4.71338 21.8956 4.71338 21.8956C6.21965 22.0041 7.01278 23.4805 7.01278 23.4805C8.35064 25.8317 10.5219 25.152 11.3778 24.759C11.5125 23.765 11.9012 23.0865 12.3302 22.7024C8.99845 22.3135 5.49607 20.9948 5.49607 15.1017C5.49607 13.4226 6.08204 12.0506 7.04159 10.9736C6.88585 10.5862 6.37241 9.02192 7.1869 6.90347C7.1869 6.90347 8.44652 6.49012 11.313 8.47996C12.5095 8.13919 13.7927 7.9683 15.0675 7.96244C16.3423 7.9683 17.6265 8.13919 18.8252 8.47996C21.6882 6.49012 22.9461 6.90347 22.9461 6.90347C23.7626 9.02192 23.2489 10.5862 23.0932 10.9736C24.055 12.0506 24.637 13.4226 24.637 15.1017C24.637 21.0088 21.1279 22.3095 17.7877 22.6902C18.3257 23.1675 18.8051 24.1034 18.8051 25.5383C18.8051 27.5962 18.7877 29.2524 18.7877 29.7589C18.7877 30.1682 19.0577 30.6478 19.8181 30.4967C25.7749 28.4608 30.0674 22.6979 30.0674 15.905C30.0674 7.4108 23.3515 0.525208 15.0675 0.525208Z" fill="#161514"/>
<path d="M5.79258 22.5012C5.7596 22.5769 5.64258 22.5995 5.53597 22.5476C5.42737 22.4979 5.36638 22.3948 5.40159 22.3189C5.43382 22.241 5.55109 22.2193 5.65944 22.2715C5.76828 22.3211 5.83026 22.4253 5.79258 22.5012Z" fill="#161514"/>
<path d="M6.3995 23.1896C6.3281 23.2569 6.18851 23.2256 6.0938 23.1192C5.99586 23.0131 5.97752 22.8711 6.04991 22.8028C6.12355 22.7354 6.25892 22.7669 6.3571 22.8731C6.45504 22.9805 6.47413 23.1215 6.3995 23.1896Z" fill="#161514"/>
<path d="M6.98993 24.0666C6.8982 24.1314 6.7482 24.0706 6.65547 23.9352C6.56373 23.7998 6.56373 23.6374 6.65745 23.5724C6.75043 23.5073 6.8982 23.5658 6.99216 23.7002C7.08365 23.8379 7.08365 24.0003 6.98993 24.0666Z" fill="#161514"/>
<path d="M7.79885 24.9135C7.71678 25.0056 7.54199 24.9809 7.41406 24.8553C7.28315 24.7325 7.2467 24.5582 7.32902 24.4662C7.41207 24.3739 7.58786 24.3999 7.71678 24.5244C7.8467 24.647 7.88637 24.8225 7.79885 24.9135Z" fill="#161514"/>
<path d="M8.91437 25.4057C8.87817 25.5249 8.70983 25.5792 8.54024 25.5285C8.3709 25.4763 8.26007 25.3366 8.29429 25.216C8.3295 25.096 8.49859 25.0395 8.66941 25.0937C8.8385 25.1457 8.94958 25.2844 8.91437 25.4057Z" fill="#161514"/>
<path d="M10.1395 25.4965C10.1437 25.6221 9.9999 25.7262 9.82188 25.7285C9.64287 25.7325 9.49808 25.6309 9.49609 25.5073C9.49609 25.3805 9.63667 25.2773 9.81568 25.2743C9.9937 25.2708 10.1395 25.3717 10.1395 25.4965Z" fill="#161514"/>
<path d="M11.28 25.2999C11.3013 25.4225 11.1776 25.5483 11.0008 25.5818C10.827 25.6141 10.6661 25.5385 10.644 25.4169C10.6224 25.2913 10.7484 25.1655 10.9219 25.133C11.099 25.1017 11.2574 25.1753 11.28 25.2999Z" fill="#161514"/>
</svg>
