<svg width="31" height="31" viewBox="0 0 31 31" fill="none" xmlns="http://www.w3.org/2000/svg">
<path d="M0.0673828 15.5252C0.0673828 7.24094 6.78311 0.525208 15.0674 0.525208C23.3517 0.525208 30.0674 7.24094 30.0674 15.5252C30.0674 23.8095 23.3517 30.5252 15.0674 30.5252C6.78311 30.5252 0.0673828 23.8095 0.0673828 15.5252Z" fill="url(#paint0_linear_916_1809)"/>
<mask id="mask0_916_1809" style="mask-type:alpha" maskUnits="userSpaceOnUse" x="0" y="0" width="31" height="31">
<path fill-rule="evenodd" clip-rule="evenodd" d="M0.0673828 15.5252C0.0673828 7.24094 6.78311 0.525208 15.0674 0.525208C23.3517 0.525208 30.0674 7.24094 30.0674 15.5252C30.0674 23.8095 23.3517 30.5252 15.0674 30.5252C6.78311 30.5252 0.0673828 23.8095 0.0673828 15.5252Z" fill="white"/>
</mask>
<g mask="url(#mask0_916_1809)">
<path fill-rule="evenodd" clip-rule="evenodd" d="M15.0681 7.52521C12.8954 7.52521 12.6228 7.53471 11.7694 7.57354C10.9178 7.61254 10.3364 7.74738 9.82775 7.94521C9.30157 8.14955 8.85524 8.42288 8.41056 8.86772C7.96556 9.31239 7.69222 9.75873 7.48722 10.2847C7.28889 10.7936 7.15388 11.3751 7.11555 12.2264C7.07738 13.0798 7.06738 13.3526 7.06738 15.5253C7.06738 17.698 7.07705 17.9698 7.11572 18.8232C7.15488 19.6748 7.28972 20.2562 7.48739 20.7648C7.69189 21.291 7.96523 21.7374 8.41006 22.182C8.85457 22.627 9.30091 22.901 9.82675 23.1054C10.3358 23.3032 10.9173 23.438 11.7688 23.477C12.6221 23.5159 12.8946 23.5254 15.0671 23.5254C17.24 23.5254 17.5118 23.5159 18.3652 23.477C19.2168 23.438 19.7989 23.3032 20.3079 23.1054C20.8339 22.901 21.2795 22.627 21.724 22.182C22.169 21.7374 22.4424 21.291 22.6474 20.765C22.8441 20.2562 22.9791 19.6747 23.0191 18.8233C23.0574 17.97 23.0674 17.698 23.0674 15.5253C23.0674 13.3526 23.0574 13.0799 23.0191 12.2266C22.9791 11.3749 22.8441 10.7936 22.6474 10.2849C22.4424 9.75873 22.169 9.31239 21.724 8.86772C21.279 8.42272 20.834 8.14938 20.3074 7.94521C19.7974 7.74738 19.2157 7.61254 18.364 7.57354C17.5107 7.53471 17.239 7.52521 15.0656 7.52521H15.0681ZM14.8014 8.96681H14.8015L15.0681 8.96689C17.2042 8.96689 17.4573 8.97456 18.3008 9.01289C19.0808 9.04856 19.5042 9.17889 19.7862 9.28839C20.1595 9.43339 20.4257 9.60673 20.7055 9.88673C20.9855 10.1667 21.1589 10.4334 21.3042 10.8067C21.4137 11.0884 21.5442 11.5117 21.5797 12.2918C21.618 13.1351 21.6264 13.3884 21.6264 15.5235C21.6264 17.6585 21.618 17.9118 21.5797 18.7552C21.544 19.5352 21.4137 19.9585 21.3042 20.2402C21.1592 20.6135 20.9855 20.8793 20.7055 21.1592C20.4255 21.4392 20.1597 21.6125 19.7862 21.7575C19.5045 21.8675 19.0808 21.9975 18.3008 22.0332C17.4575 22.0715 17.2042 22.0799 15.0681 22.0799C12.9319 22.0799 12.6788 22.0715 11.8354 22.0332C11.0554 21.9972 10.6321 21.8669 10.3499 21.7574C9.97658 21.6124 9.70991 21.439 9.42991 21.159C9.1499 20.879 8.97657 20.613 8.83124 20.2395C8.72173 19.9578 8.59123 19.5345 8.55573 18.7545C8.5174 17.9111 8.50973 17.6578 8.50973 15.5215C8.50973 13.3851 8.5174 13.1331 8.55573 12.2898C8.5914 11.5097 8.72173 11.0864 8.83124 10.8044C8.97624 10.4311 9.1499 10.1644 9.42991 9.8844C9.70991 9.6044 9.97658 9.43106 10.3499 9.28573C10.6319 9.17573 11.0554 9.04572 11.8354 9.00989C12.5734 8.97656 12.8594 8.96656 14.3505 8.96489V8.96689C14.4898 8.96667 14.6396 8.96674 14.8014 8.96681ZM18.3785 11.2549C18.3785 10.7247 18.8085 10.2952 19.3385 10.2952V10.2949C19.8685 10.2949 20.2985 10.7249 20.2985 11.2549C20.2985 11.7849 19.8685 12.2149 19.3385 12.2149C18.8085 12.2149 18.3785 11.7849 18.3785 11.2549ZM15.068 11.4169C12.7992 11.417 10.9598 13.2565 10.9598 15.5253C10.9598 17.7941 12.7993 19.6328 15.0681 19.6328C17.337 19.6328 19.1758 17.7941 19.1758 15.5253C19.1758 13.2564 17.3368 11.4169 15.068 11.4169ZM17.7348 15.5253C17.7348 14.0524 16.5408 12.8586 15.0681 12.8586C13.5953 12.8586 12.4014 14.0524 12.4014 15.5253C12.4014 16.998 13.5953 18.192 15.0681 18.192C16.5408 18.192 17.7348 16.998 17.7348 15.5253Z" fill="white"/>
</g>
<defs>
<linearGradient id="paint0_linear_916_1809" x1="6.44238" y1="27.1502" x2="26.3174" y2="6.52521" gradientUnits="userSpaceOnUse">
<stop stop-color="#EEA054"/>
<stop offset="0.502762" stop-color="#D64763"/>
<stop offset="1" stop-color="#B62A99"/>
</linearGradient>
</defs>
</svg>
