<svg width="60" height="60" viewBox="0 0 60 60" fill="none" xmlns="http://www.w3.org/2000/svg">
<rect width="60" height="60" rx="30" fill="url(#paint0_linear_750_589)"/>
<rect x="1.5" y="1.5" width="57" height="57" rx="28.5" stroke="url(#paint1_linear_750_589)" stroke-opacity="0.28" stroke-width="3"/>
<path d="M30.012 32.8301C28.4075 32.8301 27.1096 31.5801 27.1096 30.0101C27.1096 28.4401 28.4075 27.1801 30.012 27.1801C31.6164 27.1801 32.8837 28.4401 32.8837 30.0101C32.8837 31.5801 31.6164 32.8301 30.012 32.8301" fill="#2C2936"/>
<path opacity="0.4" d="M39.23 32.3701C39.0359 32.0701 38.7599 31.7701 38.4022 31.5801C38.1161 31.4401 37.9321 31.2101 37.7686 30.9401C37.2474 30.0801 37.554 28.9501 38.4227 28.4401C39.4446 27.8701 39.7717 26.6001 39.1789 25.6101L38.4942 24.4301C37.9117 23.4401 36.6343 23.0901 35.6225 23.6701C34.7232 24.1501 33.5684 23.8301 33.0472 22.9801C32.8837 22.7001 32.7917 22.4001 32.8121 22.1001C32.8428 21.7101 32.7202 21.3401 32.5362 21.0401C32.1581 20.4201 31.4734 20.0001 30.7171 20.0001H29.2762C28.5301 20.0201 27.8454 20.4201 27.4673 21.0401C27.2731 21.3401 27.1607 21.7101 27.1811 22.1001C27.2016 22.4001 27.1096 22.7001 26.9461 22.9801C26.4249 23.8301 25.2701 24.1501 24.381 23.6701C23.359 23.0901 22.0918 23.4401 21.4991 24.4301L20.8144 25.6101C20.2318 26.6001 20.5589 27.8701 21.5706 28.4401C22.4393 28.9501 22.7459 30.0801 22.2349 30.9401C22.0611 31.2101 21.8772 31.4401 21.591 31.5801C21.2436 31.7701 20.937 32.0701 20.7735 32.3701C20.3953 32.9901 20.4158 33.7701 20.7939 34.4201L21.4991 35.6201C21.8772 36.2601 22.5823 36.6601 23.3181 36.6601C23.6656 36.6601 24.0744 36.5601 24.4014 36.3601C24.6569 36.1901 24.9635 36.1301 25.3007 36.1301C26.3125 36.1301 27.1607 36.9601 27.1811 37.9501C27.1811 39.1001 28.1213 40.0001 29.3068 40.0001H30.6967C31.8719 40.0001 32.8121 39.1001 32.8121 37.9501C32.8428 36.9601 33.691 36.1301 34.7028 36.1301C35.0298 36.1301 35.3364 36.1901 35.6021 36.3601C35.9291 36.5601 36.3277 36.6601 36.6854 36.6601C37.4109 36.6601 38.1161 36.2601 38.4942 35.6201L39.2096 34.4201C39.5775 33.7501 39.6081 32.9901 39.23 32.3701" fill="#2C2936"/>
<defs>
<linearGradient id="paint0_linear_750_589" x1="30" y1="0" x2="30" y2="60" gradientUnits="userSpaceOnUse">
<stop stop-color="#FFD107"/>
<stop offset="1" stop-color="#FFE15F"/>
</linearGradient>
<linearGradient id="paint1_linear_750_589" x1="56.2969" y1="2.58408e-06" x2="-12.5112" y2="36.2553" gradientUnits="userSpaceOnUse">
<stop stop-color="white"/>
<stop offset="1" stop-color="#5C29FF" stop-opacity="0.6"/>
</linearGradient>
</defs>
</svg>
