<svg width="41" height="41" viewBox="0 0 41 41" fill="none" xmlns="http://www.w3.org/2000/svg">
<circle cx="20.0674" cy="20.5264" r="20" fill="#55ACE3"/>
<path d="M30.6674 15.4264C29.9674 15.7264 29.1674 15.9264 28.3674 16.0264C29.1674 15.5264 29.8674 14.7264 30.1674 13.8264C29.3674 14.3264 28.5674 14.6264 27.5674 14.8264C26.8674 14.0264 25.7674 13.5264 24.6674 13.5264C22.4674 13.5264 20.6674 15.3264 20.6674 17.5264C20.6674 17.8264 20.6674 18.1264 20.7674 18.4264C17.4674 18.2264 14.4674 16.6264 12.4674 14.2264C12.1674 14.8264 11.9674 15.5264 11.9674 16.2264C11.9674 17.6264 12.6674 18.8264 13.7674 19.5264C13.0674 19.5264 12.4674 19.3264 11.9674 19.0264C11.9674 20.9264 13.3674 22.6264 15.1674 22.9264C14.8674 23.0264 14.4674 23.0264 14.0674 23.0264C13.7674 23.0264 13.5674 23.0264 13.2674 22.9264C13.7674 24.5264 15.2674 25.7264 17.0674 25.7264C15.6674 26.8264 13.9674 27.4264 12.0674 27.4264C11.7674 27.4264 11.4674 27.4264 11.0674 27.3264C12.8674 28.4264 14.9674 29.1264 17.2674 29.1264C24.6674 29.1264 28.6674 23.0264 28.6674 17.7264V17.2264C29.4674 16.9264 30.1674 16.2264 30.6674 15.4264Z" fill="white"/>
</svg>
