<svg width="60" height="60" viewBox="0 0 60 60" fill="none" xmlns="http://www.w3.org/2000/svg">
<rect width="60" height="60" rx="30" fill="url(#paint0_linear_750_562)"/>
<rect x="1.5" y="1.5" width="57" height="57" rx="28.5" stroke="url(#paint1_linear_750_562)" stroke-opacity="0.28" stroke-width="3"/>
<path d="M27.3493 32.8577C23.3855 32.8577 20 33.47 20 35.9174C20 38.3666 23.364 39 27.3493 39C31.3131 39 34.6987 38.3877 34.6987 35.9404C34.6987 33.4911 31.3347 32.8577 27.3493 32.8577" fill="#2C2936"/>
<path opacity="0.4" d="M27.3493 30.5248C30.0489 30.5248 32.2124 28.4062 32.2124 25.7624C32.2124 23.1187 30.0489 21 27.3493 21C24.6507 21 22.4863 23.1187 22.4863 25.7624C22.4863 28.4062 24.6507 30.5248 27.3493 30.5248" fill="#2C2936"/>
<path opacity="0.4" d="M34.1734 25.8487C34.1734 27.195 33.7605 28.4513 33.0364 29.4948C32.9611 29.6021 33.0276 29.7468 33.1587 29.7698C33.3407 29.7995 33.5276 29.8177 33.7184 29.8216C35.6167 29.8704 37.3202 28.6736 37.7908 26.8712C38.4885 24.1967 36.4415 21.7954 33.8339 21.7954C33.5511 21.7954 33.2801 21.8242 33.0159 21.8769C32.9797 21.8845 32.9405 21.9018 32.921 21.9324C32.8955 21.9717 32.9141 22.0225 32.9396 22.056C33.7233 23.1321 34.1734 24.442 34.1734 25.8487" fill="#2C2936"/>
<path d="M39.7791 33.1694C39.4318 32.444 38.5932 31.9467 37.3173 31.7023C36.7155 31.5586 35.0854 31.3545 33.5697 31.3832C33.5472 31.3861 33.5345 31.4014 33.5325 31.411C33.5296 31.4263 33.5364 31.4493 33.5658 31.4656C34.2664 31.8049 36.9738 33.2805 36.6333 36.3929C36.6186 36.5289 36.7292 36.6439 36.8672 36.6248C37.5335 36.5318 39.2478 36.1706 39.7791 35.0475C40.0736 34.4534 40.0736 33.7635 39.7791 33.1694" fill="#2C2936"/>
<defs>
<linearGradient id="paint0_linear_750_562" x1="30" y1="0" x2="30" y2="60" gradientUnits="userSpaceOnUse">
<stop stop-color="#FFD107"/>
<stop offset="1" stop-color="#FFE15F"/>
</linearGradient>
<linearGradient id="paint1_linear_750_562" x1="56.2969" y1="2.58408e-06" x2="-12.5112" y2="36.2553" gradientUnits="userSpaceOnUse">
<stop stop-color="white"/>
<stop offset="1" stop-color="#5C29FF" stop-opacity="0.6"/>
</linearGradient>
</defs>
</svg>
