<svg width="60" height="60" viewBox="0 0 60 60" fill="none" xmlns="http://www.w3.org/2000/svg">
<rect width="60" height="60" rx="30" fill="url(#paint0_linear_750_224)"/>
<rect x="1.5" y="1.5" width="57" height="57" rx="28.5" stroke="url(#paint1_linear_750_224)" stroke-opacity="0.28" stroke-width="3"/>
<path opacity="0.4" d="M30.02 20C24.21 20 20 24.74 20 30C20 31.68 20.49 33.41 21.35 34.99C21.51 35.25 21.53 35.58 21.42 35.89L20.75 38.13C20.6 38.67 21.06 39.07 21.57 38.91L23.59 38.31C24.14 38.13 24.57 38.36 25.081 38.67C26.541 39.53 28.36 39.97 30 39.97C34.96 39.97 40 36.14 40 29.97C40 24.65 35.7 20 30.02 20" fill="#2C2936"/>
<path fill-rule="evenodd" clip-rule="evenodd" d="M29.9805 31.2901C29.2705 31.2801 28.7005 30.7101 28.7005 30.0001C28.7005 29.3001 29.2805 28.7201 29.9805 28.7301C30.6905 28.7301 31.2605 29.3001 31.2605 30.0101C31.2605 30.7101 30.6905 31.2901 29.9805 31.2901ZM25.3701 31.2901C24.6701 31.2901 24.0901 30.7101 24.0901 30.0101C24.0901 29.3001 24.6601 28.7301 25.3701 28.7301C26.0801 28.7301 26.6501 29.3001 26.6501 30.0101C26.6501 30.7101 26.0801 31.2801 25.3701 31.2901ZM33.3103 30.0101C33.3103 30.7101 33.8803 31.2901 34.5903 31.2901C35.3003 31.2901 35.8703 30.7101 35.8703 30.0101C35.8703 29.3001 35.3003 28.7301 34.5903 28.7301C33.8803 28.7301 33.3103 29.3001 33.3103 30.0101Z" fill="#2C2936"/>
<defs>
<linearGradient id="paint0_linear_750_224" x1="30" y1="0" x2="30" y2="60" gradientUnits="userSpaceOnUse">
<stop stop-color="#FFD107"/>
<stop offset="1" stop-color="#FFE15F"/>
</linearGradient>
<linearGradient id="paint1_linear_750_224" x1="56.2969" y1="2.58408e-06" x2="-12.5112" y2="36.2553" gradientUnits="userSpaceOnUse">
<stop stop-color="white"/>
<stop offset="1" stop-color="#5C29FF" stop-opacity="0.6"/>
</linearGradient>
</defs>
</svg>
