<svg width="60" height="60" viewBox="0 0 60 60" fill="none" xmlns="http://www.w3.org/2000/svg">
<rect width="60" height="60" rx="30" fill="#595566"/>
<rect x="1.5" y="1.5" width="57" height="57" rx="28.5" stroke="url(#paint0_linear_723_1915)" stroke-opacity="0.28" stroke-width="3"/>
<path opacity="0.4" d="M27.6999 34.7495H19.8093C18.8107 34.7495 18 35.546 18 36.5271C18 37.507 18.8107 38.3047 19.8093 38.3047H27.6999C28.6986 38.3047 29.5093 37.507 29.5093 36.5271C29.5093 35.546 28.6986 34.7495 27.6999 34.7495Z" fill="white"/>
<path opacity="0.4" d="M42.0001 23.2543C42.0001 22.2744 41.1895 21.478 40.1921 21.478H32.3015C31.3028 21.478 30.4922 22.2744 30.4922 23.2543C30.4922 24.2354 31.3028 25.0319 32.3015 25.0319H40.1921C41.1895 25.0319 42.0001 24.2354 42.0001 23.2543Z" fill="white"/>
<path d="M26.2533 23.2543C26.2533 25.4943 24.4066 27.3099 22.1266 27.3099C19.848 27.3099 18 25.4943 18 23.2543C18 21.0156 19.848 19.2 22.1266 19.2C24.4066 19.2 26.2533 21.0156 26.2533 23.2543Z" fill="white"/>
<path d="M41.9999 36.4791C41.9999 38.7178 40.1532 40.5333 37.8732 40.5333C35.5946 40.5333 33.7466 38.7178 33.7466 36.4791C33.7466 34.2391 35.5946 32.4235 37.8732 32.4235C40.1532 32.4235 41.9999 34.2391 41.9999 36.4791Z" fill="white"/>
<defs>
<linearGradient id="paint0_linear_723_1915" x1="56.2969" y1="2.58408e-06" x2="-12.5112" y2="36.2553" gradientUnits="userSpaceOnUse">
<stop stop-color="white"/>
<stop offset="1" stop-color="#5C29FF" stop-opacity="0.6"/>
</linearGradient>
</defs>
</svg>
