<svg width="20" height="15" viewBox="0 0 20 15" fill="none" xmlns="http://www.w3.org/2000/svg">
<path opacity="0.4" d="M19.3309 2.44257C18.9119 2.17861 18.3969 2.15526 17.9579 2.37861L16.4759 3.12683C15.9279 3.40297 15.5879 3.96135 15.5879 4.58267V10.4162C15.5879 11.0375 15.9279 11.5949 16.4759 11.873L17.9569 12.6202C18.1579 12.7238 18.3729 12.7735 18.5879 12.7735C18.8459 12.7735 19.1019 12.7004 19.3309 12.5573C19.7499 12.2943 19.9999 11.8385 19.9999 11.339V3.66186C19.9999 3.16236 19.7499 2.70653 19.3309 2.44257Z" fill="white"/>
<path d="M9.9051 15H4.11304C1.69102 15 0 13.3299 0 10.9391V4.06091C0 1.66904 1.69102 0 4.11304 0H9.9051C12.3271 0 14.0181 1.66904 14.0181 4.06091V10.9391C14.0181 13.3299 12.3271 15 9.9051 15Z" fill="white"/>
</svg>
