<svg width="31" height="31" viewBox="0 0 31 31" fill="none" xmlns="http://www.w3.org/2000/svg">
<path d="M15.0674 30.5252C23.3517 30.5252 30.0674 23.8095 30.0674 15.5252C30.0674 7.24094 23.3517 0.525208 15.0674 0.525208C6.78311 0.525208 0.0673828 7.24094 0.0673828 15.5252C0.0673828 23.8095 6.78311 30.5252 15.0674 30.5252Z" fill="url(#paint0_linear_916_1821)"/>
<path d="M12.3174 22.4002C11.8314 22.4002 11.914 22.2167 11.7464 21.754L10.3174 17.0509L21.3174 10.5252" fill="#C8DAEA"/>
<path d="M12.3174 22.4002C12.6924 22.4002 12.8581 22.2287 13.0674 22.0252L15.0674 20.0805L12.5726 18.5761" fill="#A9C9DD"/>
<path d="M12.5728 18.5764L18.6178 23.0426C19.3076 23.4232 19.8054 23.2261 19.9773 22.4021L22.4379 10.8068C22.6898 9.79674 22.0529 9.33864 21.393 9.63824L6.94422 15.2096C5.95796 15.6052 5.96371 16.1554 6.76445 16.4006L10.4723 17.5579L19.0564 12.1423C19.4617 11.8965 19.8336 12.0286 19.5283 12.2996" fill="url(#paint1_linear_916_1821)"/>
<defs>
<linearGradient id="paint0_linear_916_1821" x1="11.3189" y1="1.77621" x2="3.81888" y2="19.2752" gradientUnits="userSpaceOnUse">
<stop stop-color="#37AEE2"/>
<stop offset="1" stop-color="#1E96C8"/>
</linearGradient>
<linearGradient id="paint1_linear_916_1821" x1="13.19" y1="16.4466" x2="14.7927" y2="21.6309" gradientUnits="userSpaceOnUse">
<stop stop-color="#EFF7FC"/>
<stop offset="1" stop-color="white"/>
</linearGradient>
</defs>
</svg>
