<svg width="60" height="60" viewBox="0 0 60 60" fill="none" xmlns="http://www.w3.org/2000/svg">
<rect width="60" height="60" rx="30" fill="url(#paint0_linear_753_1915)"/>
<rect x="1.5" y="1.5" width="57" height="57" rx="28.5" stroke="url(#paint1_linear_753_1915)" stroke-opacity="0.28" stroke-width="3"/>
<path opacity="0.4" d="M34.6756 20H25.3333C21.9289 20 20 21.9289 20 25.3333V34.6667C20 38.0711 21.9289 40 25.3333 40H34.6756C38.08 40 40 38.0711 40 34.6667V25.3333C40 21.9289 38.08 20 34.6756 20" fill="#2C2936"/>
<path d="M25.3687 27.369C24.9154 27.369 24.542 27.7423 24.542 28.2045V35.0756C24.542 35.529 24.9154 35.9023 25.3687 35.9023C25.8309 35.9023 26.2043 35.529 26.2043 35.0756V28.2045C26.2043 27.7423 25.8309 27.369 25.3687 27.369" fill="#2C2936"/>
<path d="M30.0354 24.089C29.582 24.089 29.2087 24.4623 29.2087 24.9245V35.0757C29.2087 35.529 29.582 35.9023 30.0354 35.9023C30.4976 35.9023 30.8709 35.529 30.8709 35.0757V24.9245C30.8709 24.4623 30.4976 24.089 30.0354 24.089" fill="#2C2936"/>
<path d="M34.6399 30.9957C34.1777 30.9957 33.8044 31.369 33.8044 31.8312V35.0757C33.8044 35.529 34.1777 35.9023 34.631 35.9023C35.0932 35.9023 35.4666 35.529 35.4666 35.0757V31.8312C35.4666 31.369 35.0932 30.9957 34.6399 30.9957" fill="#2C2936"/>
<defs>
<linearGradient id="paint0_linear_753_1915" x1="30" y1="0" x2="30" y2="60" gradientUnits="userSpaceOnUse">
<stop stop-color="#FFD107"/>
<stop offset="1" stop-color="#FFE15F"/>
</linearGradient>
<linearGradient id="paint1_linear_753_1915" x1="56.2969" y1="2.58408e-06" x2="-12.5112" y2="36.2553" gradientUnits="userSpaceOnUse">
<stop stop-color="white"/>
<stop offset="1" stop-color="#5C29FF" stop-opacity="0.6"/>
</linearGradient>
</defs>
</svg>
