<svg width="60" height="60" viewBox="0 0 60 60" fill="none" xmlns="http://www.w3.org/2000/svg">
<rect width="60" height="60" rx="30" fill="url(#paint0_linear_822_1695)"/>
<rect x="1.5" y="1.5" width="57" height="57" rx="28.5" stroke="url(#paint1_linear_822_1695)" stroke-opacity="0.28" stroke-width="3"/>
<path d="M28.8672 25.2143L33.0865 32.0624C33.1805 32.2158 33.1715 32.4122 33.0605 32.5558C32.5594 33.2064 32.0514 33.7877 31.6244 34.1755C31.6244 34.1755 31.2824 34.5096 31.0654 34.6542C30.7693 34.8877 30.3823 35 30.0063 35C29.5843 35 29.1853 34.8769 28.8662 34.6317C28.8092 34.576 28.5582 34.364 28.3532 34.1638C27.0772 32.9954 24.969 29.9455 24.33 28.3414C24.227 28.1079 24.012 27.4847 24 27.1613C24 26.8497 24.068 26.5488 24.217 26.2596C24.422 25.904 24.74 25.6256 25.1171 25.4693C25.3791 25.3687 26.1651 25.2134 26.1881 25.2134C26.7491 25.1127 27.5372 25.0375 28.4572 25.0004C28.6222 24.9936 28.7822 25.0766 28.8672 25.2143Z" fill="white"/>
<path opacity="0.4" d="M31.1397 25.6723C30.9527 25.3704 31.1917 24.9904 31.5507 25.0051C32.3928 25.0412 33.1348 25.1037 33.6869 25.1799C33.6989 25.1917 34.6779 25.347 35.0089 25.5258C35.6239 25.8374 36 26.4489 36 27.1064V27.1611C35.989 27.5851 35.6129 28.4868 35.5899 28.4868C35.4009 28.941 35.0809 29.534 34.6959 30.1719C34.5219 30.4591 34.0949 30.466 33.9179 30.1788L31.1397 25.6723Z" fill="white"/>
<defs>
<linearGradient id="paint0_linear_822_1695" x1="4.46115" y1="4.58333" x2="59.5564" y2="53.0748" gradientUnits="userSpaceOnUse">
<stop stop-color="#CB97FF"/>
<stop offset="1" stop-color="#583DFF"/>
</linearGradient>
<linearGradient id="paint1_linear_822_1695" x1="56.2969" y1="2.58408e-06" x2="-12.5112" y2="36.2553" gradientUnits="userSpaceOnUse">
<stop stop-color="white"/>
<stop offset="1" stop-color="#5C29FF" stop-opacity="0.6"/>
</linearGradient>
</defs>
</svg>
