<svg width="31" height="31" viewBox="0 0 31 31" fill="none" xmlns="http://www.w3.org/2000/svg">
<path d="M0.0673828 15.5252C0.0673828 7.24094 6.78311 0.525208 15.0674 0.525208C23.3517 0.525208 30.0674 7.24094 30.0674 15.5252C30.0674 23.8095 23.3517 30.5252 15.0674 30.5252C6.78311 30.5252 0.0673828 23.8095 0.0673828 15.5252Z" fill="#0077B5"/>
<path fill-rule="evenodd" clip-rule="evenodd" d="M10.8916 9.78939C10.8916 10.7701 10.1534 11.5548 8.96813 11.5548H8.9464C7.80517 11.5548 7.06738 10.7701 7.06738 9.78939C7.06738 8.78796 7.82764 8.02521 8.99053 8.02521C10.1534 8.02521 10.8695 8.78796 10.8916 9.78939ZM10.6677 12.9489V23.1624H7.26839V12.9489H10.6677ZM22.9269 23.1624L22.927 17.3063C22.927 14.1691 21.25 12.709 19.0131 12.709C17.2083 12.709 16.4002 13.7004 15.9491 14.3958V12.9491H12.5493C12.5941 13.9075 12.5493 23.1627 12.5493 23.1627H15.9491V17.4586C15.9491 17.1534 15.9711 16.8488 16.061 16.6303C16.3067 16.0205 16.8661 15.3891 17.8052 15.3891C19.0358 15.3891 19.5277 16.3257 19.5277 17.6982V23.1624H22.9269Z" fill="white"/>
</svg>
