<svg width="41" height="41" viewBox="0 0 41 41" fill="none" xmlns="http://www.w3.org/2000/svg">
<circle cx="20.0674" cy="20.5264" r="20" fill="#2F89CE"/>
<path d="M9.41808 20.9004L14.0162 22.615L15.8086 28.3821C15.8866 28.7717 16.3542 28.8497 16.6659 28.6159L19.2377 26.5117C19.4715 26.2779 19.8612 26.2779 20.1729 26.5117L24.771 29.8628C25.0827 30.0966 25.5503 29.9407 25.6283 29.5511L29.0574 13.185C29.1353 12.7954 28.7456 12.4057 28.356 12.5616L9.41808 19.8873C8.95048 20.0432 8.95048 20.7446 9.41808 20.9004ZM15.5749 21.7577L24.6151 16.2244C24.771 16.1465 24.9269 16.3803 24.771 16.4582L17.3673 23.3943C17.1335 23.6281 16.8997 23.9399 16.8997 24.3295L16.6659 26.1999C16.6659 26.4337 16.2762 26.5117 16.1983 26.1999L15.2631 22.7709C15.0293 22.3812 15.1852 21.9136 15.5749 21.7577Z" fill="white"/>
</svg>
