<svg width="60" height="60" viewBox="0 0 60 60" fill="none" xmlns="http://www.w3.org/2000/svg">
<rect width="60" height="60" rx="30" fill="url(#paint0_linear_750_500)"/>
<rect x="1.5" y="1.5" width="57" height="57" rx="28.5" stroke="url(#paint1_linear_750_500)" stroke-opacity="0.28" stroke-width="3"/>
<path opacity="0.4" d="M20.0002 29.0785C20.0502 31.4165 20.1902 35.4155 20.2102 35.8565C20.2812 36.7995 20.6422 37.7525 21.2042 38.4245C21.9862 39.3675 22.9492 39.7885 24.2922 39.7885C26.1482 39.7985 28.1942 39.7985 30.1812 39.7985C32.1762 39.7985 34.1122 39.7985 35.7472 39.7885C37.0712 39.7885 38.0642 39.3565 38.8362 38.4245C39.3982 37.7525 39.7592 36.7895 39.8102 35.8565C39.8302 35.4855 39.9302 31.1445 39.9902 29.0785H20.0002Z" fill="#2C2936"/>
<path d="M29.2454 33.3842V34.6782C29.2454 35.0922 29.5814 35.4282 29.9954 35.4282C30.4094 35.4282 30.7454 35.0922 30.7454 34.6782V33.3842C30.7454 32.9702 30.4094 32.6342 29.9954 32.6342C29.5814 32.6342 29.2454 32.9702 29.2454 33.3842" fill="#2C2936"/>
<path fill-rule="evenodd" clip-rule="evenodd" d="M28.2113 32.5564C28.1113 32.9194 27.7623 33.1514 27.3843 33.1014C24.8333 32.7454 22.3953 31.8404 20.3373 30.4814C20.1263 30.3434 20.0003 30.1074 20.0003 29.8554V26.3894C20.0003 24.2894 21.7123 22.5814 23.8173 22.5814H25.7843C25.9723 21.1294 27.2023 20.0004 28.7043 20.0004H31.2863C32.7873 20.0004 34.0183 21.1294 34.2063 22.5814H36.1833C38.2823 22.5814 39.9903 24.2894 39.9903 26.3894V29.8554C39.9903 30.1074 39.8633 30.3424 39.6543 30.4814C37.5923 31.8464 35.1443 32.7554 32.5763 33.1104C32.5413 33.1154 32.5073 33.1174 32.4733 33.1174C32.1343 33.1174 31.8313 32.8884 31.7463 32.5524C31.5443 31.7564 30.8213 31.1994 29.9903 31.1994C29.1483 31.1994 28.4333 31.7444 28.2113 32.5564ZM31.2863 21.5004H28.7043C28.0313 21.5004 27.4693 21.9604 27.3013 22.5814H32.6883C32.5203 21.9604 31.9583 21.5004 31.2863 21.5004Z" fill="#2C2936"/>
<defs>
<linearGradient id="paint0_linear_750_500" x1="30" y1="0" x2="30" y2="60" gradientUnits="userSpaceOnUse">
<stop stop-color="#FFD107"/>
<stop offset="1" stop-color="#FFE15F"/>
</linearGradient>
<linearGradient id="paint1_linear_750_500" x1="56.2969" y1="2.58408e-06" x2="-12.5112" y2="36.2553" gradientUnits="userSpaceOnUse">
<stop stop-color="white"/>
<stop offset="1" stop-color="#5C29FF" stop-opacity="0.6"/>
</linearGradient>
</defs>
</svg>
